# xmcd
#
# Track frame offsets:
#   150
#   17440
#   31572
#   49337
#   65620
#   78750
#   92732
#   108850
#   123015
#   136887
#   153960
#   169167
#   181202
#   193375
#
# Disc length: 2727 seconds
#
# Revision: 0
# Processed by: cddbd v1.5.1PL2 Copyright (c) Steve Scherf et al.
# Submitted via: uFREEDB ActiveX Control 1.5
#
DISCID=a60aa50e
DTITLE=Zé do Rancho - Violas
DYEAR=1900
DGENRE=Country
TTITLE0=Caminheiro
TTITLE1=Lamentos da Viola
TTITLE2=La Paloma (A Pombinha)
TTITLE3=Lembranças
TTITLE4=A Viola e o Violão
TTITLE5=Rio abaixo
TTITLE6=Zingara
TTITLE7=Poeira
TTITLE8=O Canto do rouxinol
TTITLE9=Despertar da Montanha
TTITLE10=Disparada
TTITLE11=Não me abandones
TTITLE12=Minha Viola
TTITLE13=Chalana
EXTD=
EXTT0=
EXTT1=
EXTT2=
EXTT3=
EXTT4=
EXTT5=
EXTT6=
EXTT7=
EXTT8=
EXTT9=
EXTT10=
EXTT11=
EXTT12=
EXTT13=
PLAYORDER=
